# xmcd
#
# Track frame offsets:
#	150
#	14383
#	35056
#	49336
#	62495
#	77888
#	92817
#	107032
#	120402
#	138475
#	157601
#	168419
#	184876
#	199567
#	210875
#	226978
#	241474
#	255380
#	267062
#	284110
#	296465
#	308813
#	326627
#	339305
#
# Disc length: 4771 seconds
#
# Revision: 0
# Processed by: cddbd v1.5.2PL0 Copyright (c) Steve Scherf et al.
# Submitted via: EasyCDDAExtractor 12.0.5.1
#
DISCID=4f12a118
DTITLE=Various Artist - Country Hits, Vol. 15
DYEAR=2010
DGENRE=Country
TTITLE0=Charley Pride - Have I Got Some Blues for You
TTITLE1=Merle Haggard - I Think I'll Just Stay Here And Drink
TTITLE2=Dolly Parton - My Tennessee Mountain Home
TTITLE3=Don Williams - Mistakes
TTITLE4=Tanya Tucker - Come In Out Of The World
TTITLE5=Charley Pride - If You Still Want A Fool Around
TTITLE6=Merle Haggard - Ramblin' Fever
TTITLE7=Lynn Anderson - Rose Garden
TTITLE8=Sara Evans - A Real Fine Place To Start
TTITLE9=Nitty Gritty Dirt Band - Going Up The Country
TTITLE10=Charley Pride - Walk On By
TTITLE11=Merle Haggard - Leonard
TTITLE12=Sara Evans - Love, Don't Be A Stranger
TTITLE13=Dolly Parton - The Wrong Direction Home
TTITLE14=Zac Brown Band - Chicken Fried
TTITLE15=Don Williams - If Hollywood Don't Need You
TTITLE16=Charley Pride - Sea of Heartbreak
TTITLE17=Merle Haggard - Back To The Barrooms Again
TTITLE18=Sara Evans - Suds In The Bucket
TTITLE19=Lynn Anderson - Stand By Your Man
TTITLE20=Dolly Parton - Back Home
TTITLE21=Tanya Tucker - Nobody Dies From A Broken Heart
TTITLE22=Charley Pride - Lone Star Lonely
TTITLE23=Merle Haggard - Wake Up
EXTD=
EXTT0=
EXTT1=
EXTT2=
EXTT3=
EXTT4=
EXTT5=
EXTT6=
EXTT7=
EXTT8=
EXTT9=
EXTT10=
EXTT11=
EXTT12=
EXTT13=
EXTT14=
EXTT15=
EXTT16=
EXTT17=
EXTT18=
EXTT19=
EXTT20=
EXTT21=
EXTT22=
EXTT23=
PLAYORDER=
